inDegrees=no
num_controls=7
num_derivatives=13
num_iterations=102
num_multipliers=7
num_parameters=0
num_slacks=7
num_states=26
objective=5.298660
objective_accelerations=0.700887
objective_balance=0.063663
objective_effort=0.500607
objective_height=3.991639
objective_ligament=0.041864
solver_duration=1075.554618
status=Solve_Succeeded
success=true
DataType=double
version=3
OpenSimVersion=4.4-2022-07-23-0e9fedc
endheader
time	/jointset/ground_pelvis/pelvis_tilt/value	/jointset/ground_pelvis/pelvis_tx/value	/jointset/ground_pelvis/pelvis_ty/value	/jointset/hip_l/hip_flexion_l/value	/jointset/hip_l/hip_adduction_l/value	/jointset/hip_l/hip_rotation_l/value	/jointset/back/lumbar_extension/value	/jointset/patellofemoral_l/patellar_flexion_l/value	/jointset/knee_l/knee_flexion_l/value	/jointset/knee_l/knee_adduction_l/value	/jointset/knee_l/knee_rotation_l/value	/jointset/ankle_l/ankle_angle_l/value	/jointset/subtalar_l/subtalar_angle_l/value	/jointset/ground_pelvis/pelvis_tilt/speed	/jointset/ground_pelvis/pelvis_tx/speed	/jointset/ground_pelvis/pelvis_ty/speed	/jointset/hip_l/hip_flexion_l/speed	/jointset/hip_l/hip_adduction_l/speed	/jointset/hip_l/hip_rotation_l/speed	/jointset/back/lumbar_extension/speed	/jointset/patellofemoral_l/patellar_flexion_l/speed	/jointset/knee_l/knee_flexion_l/speed	/jointset/knee_l/knee_adduction_l/speed	/jointset/knee_l/knee_rotation_l/speed	/jointset/ankle_l/ankle_angle_l/speed	/jointset/subtalar_l/subtalar_angle_l/speed	/forceset/tau_hip_flexion_l	/forceset/tau_hip_adduction_l	/forceset/tau_hip_rotation_l	/forceset/tau_knee_flexion_l	/forceset/tau_ankle_angle_l	/forceset/tau_subtalar_angle_l	/forceset/tau_lumbar_extension	lambda_cid13_p0	lambda_cid13_p1	lambda_cid13_p2	lambda_cid13_p3	lambda_cid13_p4	lambda_cid13_p5	lambda_cid14_p0	/jointset/ground_pelvis/pelvis_tilt/accel	/jointset/ground_pelvis/pelvis_tx/accel	/jointset/ground_pelvis/pelvis_ty/accel	/jointset/hip_l/hip_flexion_l/accel	/jointset/hip_l/hip_adduction_l/accel	/jointset/hip_l/hip_rotation_l/accel	/jointset/back/lumbar_extension/accel	/jointset/patellofemoral_l/patellar_flexion_l/accel	/jointset/knee_l/knee_flexion_l/accel	/jointset/knee_l/knee_adduction_l/accel	/jointset/knee_l/knee_rotation_l/accel	/jointset/ankle_l/ankle_angle_l/accel	/jointset/subtalar_l/subtalar_angle_l/accel	gamma_cid13_p0	gamma_cid13_p1	gamma_cid13_p2	gamma_cid13_p3	gamma_cid13_p4	gamma_cid13_p5	gamma_cid14_p0
0.5	-0.2907719344695506	-0.04963046413751109	0.6739406061459139	1.43249419135411	-0.2471350984704667	-0.009921406418585249	-0.381449311170755	1.215923292938489	1.215923292938531	0.03384071051835387	0.174529460984637	0.2902082856826649	0.08118179720562942	-0.1501040485085662	-0.07705169208572782	-0.8701122814092341	2.580109395230753	0.0666682620025294	0.4003006876314933	-0.5309508666755831	3.021663303327119	3.021663303327066	0.5140688210116382	0.0005725341333363268	0.7465192967548719	0.2988169325112795	-0.2069129855728727	-0.007933685456091572	-0.01073288902072952	-0.3603493407696439	0.1318387188531353	0.0275272120574874	0.2176830201994311	3.753040580623863	-10.1571003476848	-1.587411860461982	-12.28800585554997	-625.1645904166932	-69.76820902914586	-0.4295486350109966	1.71152658266383	1.25595317887678	-0.3078430253246312	-3.122405257971518	-0.2695350397071091	-0.9744942891238021	2.899410517272066	-2.957725708252278	-2.957725708252279	-0.605475698137213	-0.1668248370577711	-1.827797205991868	-0.4543476523096869	3.749839594790102e-07	-5.690888341438749e-06	-5.141735230180876e-06	-1.108890710701075e-06	-3.239207485638171e-07	-5.611467917787948e-06	9.839323740636811e-08
0.51	-0.2921872959499775	-0.05033846080302181	0.6652264667991301	1.458136182981143	-0.2464831448941042	-0.005973453208977572	-0.3866138206813255	1.245987318538872	1.245987318538891	0.03895484317138447	0.1745318889941278	0.2975801704917773	0.08414467903707661	-0.1329302915101235	-0.06456734295658202	-0.8724775307465009	2.547964166995589	0.06368059101677974	0.3892804960058464	-0.5019590636520679	2.99074697532082	2.990746975320818	0.5087277516413864	-1.50684361741178e-05	0.7277423261550521	0.2936295372412961	-0.2124032286028262	-0.00778206493953546	-0.01156491801631757	-0.3691802595527542	0.1310150961735873	0.02760365199960865	0.2228843031622079	2.948752781099115	-9.831839294946857	-1.88785421692061	-11.57145072192083	-633.7447368819896	-70.27381744777799	-0.126974010207074	1.726018435519376	1.241501776988617	-0.1652204342285853	-3.309265777577068	-0.3187380458404253	-1.167245362657148	2.897860963282771	-3.217837234694934	-3.217837234687317	-0.5035437732184823	0.00724068654171039	-1.92015293289355	-0.5689499975375124	3.815583559068165e-07	-4.839459066978471e-06	-4.623136815095078e-06	-1.016050086870514e-06	-2.747558236242531e-07	-5.148322097545545e-06	1.289592355946368e-07
0.52	-0.2934297762250136	-0.05092224877783072	0.6564958040497135	1.483446985491564	-0.2458621390111673	-0.002135994668280797	-0.3914886530079824	1.275730330681616	1.275730330681616	0.04401454088736433	0.1745308347095634	0.3047607844057084	0.08705208400918493	-0.1155278074282449	-0.05220995394536506	-0.8734169619358324	2.513871571908898	0.06047872331774335	0.3782017538453123	-0.4730154298928628	2.957460611799475	2.957460611799523	0.503181833601164	-0.0001239248680923454	0.7082651177185663	0.2877215606435112	-0.2178934716327429	-0.007630444422906475	-0.01239694701185463	-0.3780111783358591	0.130191473494055	0.027680091941835	0.2280855861250193	2.156471063479439	-9.519937080439131	-2.173315938508078	-10.9874349042336	-642.1913243383727	-70.79262536601658	-0.04193913711536064	1.757271999351299	1.230561155290854	-0.02267939573760692	-3.51187862827684	-0.3123743823643561	-0.9862043961009908	2.889776664410221	-3.431732811261329	-3.431732811261333	-0.6464454321313976	-0.07107560953960325	-1.967844773325257	-0.59846391786991	3.619847709345913e-07	-3.549676856078374e-06	-3.656997807046774e-06	-8.594538089021451e-07	-1.9216951566786e-07	-4.150990128967894e-06	1.402555083066542e-07
0.53	-0.2944972816297294	-0.05138321493257226	0.6477627496428425	1.508407698461668	-0.2452734553643003	0.001593393398512494	-0.3960744297273754	1.30512950475283	1.305129504752825	0.04901644534333183	0.1745284516413893	0.311743722586556	0.08989790416007849	-0.09795413494647694	-0.04001918979002912	-0.8729589883519001	2.477971851042237	0.05724767141502713	0.3676977382208719	-0.4441784433826634	2.922007174157781	2.922007174157677	0.4971723419634558	-0.0003277394866243966	0.6882317058435499	0.2813554230015149	-0.2229056091372081	-0.007397074293589408	-0.01337984798404225	-0.3867483025518406	0.1289881210531211	0.02765543548752005	0.2327966085355347	1.244105089353269	-9.135963651746616	-2.478417006609715	-10.11381462511435	-650.3066593667628	-71.16306093882089	-0.04201907360907273	1.760303580211711	1.207791687298621	0.1152456401444324	-3.673871207961785	-0.329496670784397	-1.0791766153805	2.874880235209263	-3.65723272086012	-3.657232720883007	-0.5824753250960055	0.009456681309227341	-2.034800839468506	-0.6679210530917949	3.628642957068501e-07	-2.802336858780975e-06	-3.161638405770155e-06	-7.763357059414243e-07	-1.471519991783005e-07	-3.698454525523632e-06	1.604726199618668e-07
0.54	-0.2953884725681108	-0.0517233819174323	0.639041316952748	1.533000443744676	-0.2447172874517704	0.005218406015071009	-0.4003729924634898	1.334163127751579	1.33416312775157	0.05395740002376902	0.1745249286411646	0.3185235843596759	0.09267761646140653	-0.08026491415978612	-0.02805011996906458	-0.871092618580579	2.440278034491537	0.05397557644996387	0.3573266638058195	-0.4155726332370583	2.884350397306617	2.884350397306361	0.4909918785055231	-0.0003519113323515763	0.6676498361733806	0.2744999907304038	-0.2279177466416906	-0.007163704164400552	-0.01436274895659549	-0.3954854267678464	0.1277847686121566	0.02763077903302066	0.2375076309460383	0.322399499841395	-8.748383757887142	-2.786348489598076	-9.272470965379737	-658.5568119149173	-71.55773579636251	-0.04201412110808558	1.780381660336136	1.186222288416554	0.2589998417401606	-3.870697765084329	-0.3205829948342914	-0.9596161542239035	2.843541391491537	-3.872400653155447	-3.872400653155439	-0.6806397961765582	-0.03514705497746268	-2.077536332355943	-0.6963228436936899	3.86372792962368e-07	-2.655145693554654e-06	-3.187141548155831e-06	-7.745126051168263e-07	-1.436999540988551e-07	-3.84867234733334e-06	1.905595959797639e-07
0.55	-0.2961024867025208	-0.05194506532557228	0.6303455139289437	1.557207648833024	-0.2441938549037577	0.008740754767471584	-0.4043868867397741	1.362809560359934	1.362809560359922	0.05883564382385149	0.1745215082870341	0.3250952327092915	0.09538662329210915	-0.06254340594893619	-0.01633224181808586	-0.8678388975261749	2.400886424670637	0.05071187424871539	0.3471951262072281	-0.3872743642935499	2.844599126592139	2.844599126591899	0.484605951179275	-0.0003281953627833426	0.6466206239344716	0.2672345579989197	-0.2321381687073521	-0.007037039365421893	-0.01545520643541502	-0.4041721351042612	0.1268081528202471	0.02755813183977058	0.2415170318274654	-0.4979528045790327	-8.350434044288987	-3.104237647741301	-8.424620283244781	-666.2157265271451	-71.91585335295554	-0.04193717524120994	1.767236846135914	1.157563850828129	0.3928931718837344	-4.014845523352284	-0.3286211671768383	-1.032024002560342	2.81274830511283	-4.077081340212561	-4.077081340210116	-0.6253843814153666	0.02250163146217659	-2.12456558847893	-0.7508932168116526	4.027642929520347e-07	-2.517086231817326e-06	-3.178374195800758e-06	-7.668269274404048e-07	-1.425342284786491e-07	-3.970831612135163e-06	2.146461244347484e-07
0.5600000000000001	-0.2966394454658905	-0.05205097129772523	0.6216891151026019	1.581012647236612	-0.2437029308446378	0.01216336785590428	-0.4081198425947552	1.39104836204922	1.391048362049207	0.06364846531455713	0.1745185992340002	0.3314547985527536	0.09802112784970968	-0.04485383995099756	-0.00489463277165884	-0.8632117790880588	2.359836697539358	0.04747387867119475	0.3373795310132872	-0.3593849489767227	2.802824213492921	2.802824213492698	0.4779074166303733	-0.0002496510516736406	0.6252333349427368	0.2595995361099925	-0.2363585907729924	-0.00691037456645412	-0.01654766391424918	-0.4128588434406749	0.1258315370283342	0.02748548464650363	0.2455264327089142	-1.330113814892638	-7.948800087657519	-3.424564520201424	-7.599122427883121	-674.0425168874806	-72.29738383622106	-0.04177234893510975	1.773993217754085	1.130168467506179	0.5336793184825382	-4.202321227160088	-0.3154416700891759	-0.8964276732942676	2.761770666155473	-4.277129130103099	-4.27712913010313	-0.7431612407074781	-0.02418138666818737	-2.149151682921261	-0.7702406751830055	4.1061539622268e-07	-2.389984814266793e-06	-3.128482249756788e-06	-7.521061575417955e-07	-1.441120862095302e-07	-4.059320608527522e-06	2.315321158142383e-07
0.5700000000000001	-0.2969999067856268	-0.05204402226781787	0.6130857608721336	1.604399151052009	-0.2432441290104051	0.01548944064107257	-0.4115762029084472	1.418859606285777	1.418859606285757	0.06839284577148885	0.1745164554792487	0.3375989715918618	0.1005776554671295	-0.02726650067716338	0.006226514863032225	-0.8572384814121518	2.317209188535312	0.04429565527063888	0.3278759844598363	-0.3319829631789311	2.759110790683436	2.759110790683369	0.4709256515414814	-0.0001768737153867331	0.6035663397673063	0.2516558684132466	-0.2398711617905304	-0.00681447272580865	-0.01776582132224559	-0.4212005605635301	0.1247391896658297	0.02737910866902653	0.2488722982852962	-2.165653076070915	-7.529370718075364	-3.750643818849004	-6.653066345900011	-681.1692469995581	-72.5957235863559	-0.04149448018514875	1.746923173768015	1.094250571764174	0.6622138301200652	-4.331161867751566	-0.3171710900466774	-0.9710574784712945	2.715035124409189	-4.465573543180528	-4.465573543157123	-0.6822402040919956	0.02410835033157169	-2.180768655676609	-0.8132177762385352	4.151416497375076e-07	-2.253395202483899e-06	-3.058209603186704e-06	-7.323772050942357e-07	-1.455571590768295e-07	-4.121033371295543e-06	2.463361270569355e-07
0.58	-0.297185330934313	-0.05192762922950168	0.6045487513860197	1.627351740551224	-0.2428167410931818	0.018721730094341	-0.4147614188465961	1.446224291356877	1.446224291356855	0.07306609736533275	0.1745152597090266	0.3435254156350517	0.1030533888157182	-0.009846405740510914	0.01699416891010976	-0.8499428302172287	2.273053834302278	0.04119109526972259	0.3186228646223622	-0.3051560738683903	2.713512380401584	2.713512380401674	0.4636816440081291	-6.005411693283188e-05	0.5816875357589677	0.2434406823437857	-0.2433837328080423	-0.006718570884977316	-0.01898397873005557	-0.4295422776863617	0.1236468423033742	0.02727273269183264	0.2522181638617053	-3.014723932004995	-7.106471211760519	-4.078537297059027	-5.717858507859014	-688.4844342482522	-72.91695374591879	-0.04119824054805406	1.740544350317887	1.059469749983357	0.7981500222856823	-4.507890272957646	-0.300708990161401	-0.8463423300989628	2.646751368705472	-4.654126624576279	-4.654126624576266	-0.7956097295996439	-0.01537293423457812	-2.19151344950309	-0.8245443497261868	4.153378663610379e-07	-2.104448872630958e-06	-2.961394648954705e-06	-7.061259683968803e-07	-1.468293028194642e-07	-4.147874760041169e-06	2.584287223075306e-07
